<mxfile host="app.diagrams.net" modified="2023-10-16T09:22:58.096Z" agent="Mozilla/5.0 (Windows NT 10.0; Win64; x64) AppleWebKit/537.36 (KHTML, like Gecko) Chrome/118.0.0.0 Safari/537.36" etag="PaxPIQjR_9P5veYYb-Ox" version="22.0.4" type="device">
  <diagram name="Page-1" id="xUFc3PXWxMyrGTHliC04">
    <mxGraphModel dx="780" dy="442" grid="1" gridSize="10" guides="1" tooltips="1" connect="1" arrows="1" fold="1" page="1" pageScale="1" pageWidth="850" pageHeight="1100" math="0" shadow="0">
      <root>
        <mxCell id="0" />
        <mxCell id="1" parent="0" />
        <mxCell id="D0oXUGcAnFSLh3DBxSA6-1" value="" style="ellipse;whiteSpace=wrap;html=1;" vertex="1" parent="1">
          <mxGeometry x="330" y="20" width="120" height="60" as="geometry" />
        </mxCell>
        <mxCell id="D0oXUGcAnFSLh3DBxSA6-3" value="Start" style="text;html=1;strokeColor=none;fillColor=none;align=center;verticalAlign=middle;whiteSpace=wrap;rounded=0;" vertex="1" parent="1">
          <mxGeometry x="360" y="40" width="60" height="30" as="geometry" />
        </mxCell>
        <mxCell id="D0oXUGcAnFSLh3DBxSA6-4" value="Add Employee" style="rounded=0;whiteSpace=wrap;html=1;" vertex="1" parent="1">
          <mxGeometry x="330" y="120" width="120" height="30" as="geometry" />
        </mxCell>
        <mxCell id="D0oXUGcAnFSLh3DBxSA6-5" value="Raise Ticket Req" style="rounded=0;whiteSpace=wrap;html=1;" vertex="1" parent="1">
          <mxGeometry x="330" y="180" width="120" height="30" as="geometry" />
        </mxCell>
        <mxCell id="D0oXUGcAnFSLh3DBxSA6-6" value="Travel Req Status=Open" style="rounded=0;whiteSpace=wrap;html=1;" vertex="1" parent="1">
          <mxGeometry x="330" y="240" width="120" height="40" as="geometry" />
        </mxCell>
        <mxCell id="D0oXUGcAnFSLh3DBxSA6-7" value="" style="endArrow=classic;html=1;rounded=0;exitX=0.5;exitY=1;exitDx=0;exitDy=0;" edge="1" parent="1" source="D0oXUGcAnFSLh3DBxSA6-6" target="D0oXUGcAnFSLh3DBxSA6-8">
          <mxGeometry width="50" height="50" relative="1" as="geometry">
            <mxPoint x="380" y="260" as="sourcePoint" />
            <mxPoint x="390" y="320" as="targetPoint" />
          </mxGeometry>
        </mxCell>
        <mxCell id="D0oXUGcAnFSLh3DBxSA6-8" value="Approved?" style="rhombus;whiteSpace=wrap;html=1;" vertex="1" parent="1">
          <mxGeometry x="350" y="320" width="80" height="80" as="geometry" />
        </mxCell>
        <mxCell id="D0oXUGcAnFSLh3DBxSA6-9" value="" style="endArrow=classic;html=1;rounded=0;exitX=0.5;exitY=1;exitDx=0;exitDy=0;" edge="1" parent="1" source="D0oXUGcAnFSLh3DBxSA6-8" target="D0oXUGcAnFSLh3DBxSA6-10">
          <mxGeometry width="50" height="50" relative="1" as="geometry">
            <mxPoint x="380" y="260" as="sourcePoint" />
            <mxPoint x="390" y="440" as="targetPoint" />
          </mxGeometry>
        </mxCell>
        <mxCell id="D0oXUGcAnFSLh3DBxSA6-10" value="Text" style="text;html=1;strokeColor=none;fillColor=none;align=center;verticalAlign=middle;whiteSpace=wrap;rounded=0;" vertex="1" parent="1">
          <mxGeometry x="360" y="440" width="60" height="30" as="geometry" />
        </mxCell>
        <mxCell id="D0oXUGcAnFSLh3DBxSA6-11" value="Approved Status =Approved" style="rounded=0;whiteSpace=wrap;html=1;" vertex="1" parent="1">
          <mxGeometry x="330" y="440" width="130" height="60" as="geometry" />
        </mxCell>
        <mxCell id="D0oXUGcAnFSLh3DBxSA6-12" value="" style="endArrow=classic;html=1;rounded=0;exitX=0.5;exitY=1;exitDx=0;exitDy=0;" edge="1" parent="1" source="D0oXUGcAnFSLh3DBxSA6-11" target="D0oXUGcAnFSLh3DBxSA6-13">
          <mxGeometry width="50" height="50" relative="1" as="geometry">
            <mxPoint x="380" y="310" as="sourcePoint" />
            <mxPoint x="395" y="540" as="targetPoint" />
          </mxGeometry>
        </mxCell>
        <mxCell id="D0oXUGcAnFSLh3DBxSA6-13" value="Booking Available?" style="rhombus;whiteSpace=wrap;html=1;" vertex="1" parent="1">
          <mxGeometry x="355" y="540" width="80" height="80" as="geometry" />
        </mxCell>
        <mxCell id="D0oXUGcAnFSLh3DBxSA6-14" value="" style="endArrow=classic;html=1;rounded=0;exitX=1;exitY=0.5;exitDx=0;exitDy=0;" edge="1" parent="1" source="D0oXUGcAnFSLh3DBxSA6-8" target="D0oXUGcAnFSLh3DBxSA6-15">
          <mxGeometry width="50" height="50" relative="1" as="geometry">
            <mxPoint x="390" y="440" as="sourcePoint" />
            <mxPoint x="480" y="360" as="targetPoint" />
          </mxGeometry>
        </mxCell>
        <mxCell id="D0oXUGcAnFSLh3DBxSA6-15" value="Update Travel Req =Not approved&lt;br&gt;Status=closed" style="rounded=0;whiteSpace=wrap;html=1;" vertex="1" parent="1">
          <mxGeometry x="480" y="330" width="140" height="60" as="geometry" />
        </mxCell>
        <mxCell id="D0oXUGcAnFSLh3DBxSA6-16" value="No" style="text;html=1;strokeColor=none;fillColor=none;align=center;verticalAlign=middle;whiteSpace=wrap;rounded=0;" vertex="1" parent="1">
          <mxGeometry x="420" y="330" width="60" height="30" as="geometry" />
        </mxCell>
        <mxCell id="D0oXUGcAnFSLh3DBxSA6-17" value="Yes" style="text;html=1;strokeColor=none;fillColor=none;align=center;verticalAlign=middle;whiteSpace=wrap;rounded=0;" vertex="1" parent="1">
          <mxGeometry x="395" y="410" width="60" height="30" as="geometry" />
        </mxCell>
        <mxCell id="D0oXUGcAnFSLh3DBxSA6-18" value="" style="endArrow=classic;html=1;rounded=0;exitX=1;exitY=0.5;exitDx=0;exitDy=0;" edge="1" parent="1" source="D0oXUGcAnFSLh3DBxSA6-13" target="D0oXUGcAnFSLh3DBxSA6-19">
          <mxGeometry width="50" height="50" relative="1" as="geometry">
            <mxPoint x="390" y="500" as="sourcePoint" />
            <mxPoint x="500" y="580" as="targetPoint" />
          </mxGeometry>
        </mxCell>
        <mxCell id="D0oXUGcAnFSLh3DBxSA6-32" style="edgeStyle=orthogonalEdgeStyle;rounded=0;orthogonalLoop=1;jettySize=auto;html=1;exitX=0.5;exitY=1;exitDx=0;exitDy=0;entryX=1;entryY=0.5;entryDx=0;entryDy=0;" edge="1" parent="1" source="D0oXUGcAnFSLh3DBxSA6-19" target="D0oXUGcAnFSLh3DBxSA6-24">
          <mxGeometry relative="1" as="geometry">
            <mxPoint x="555" y="810" as="targetPoint" />
          </mxGeometry>
        </mxCell>
        <mxCell id="D0oXUGcAnFSLh3DBxSA6-19" value="Update booking status=No&lt;br&gt;Travel Req =close" style="rounded=0;whiteSpace=wrap;html=1;" vertex="1" parent="1">
          <mxGeometry x="480" y="550" width="150" height="60" as="geometry" />
        </mxCell>
        <mxCell id="D0oXUGcAnFSLh3DBxSA6-20" value="No" style="text;html=1;strokeColor=none;fillColor=none;align=center;verticalAlign=middle;whiteSpace=wrap;rounded=0;" vertex="1" parent="1">
          <mxGeometry x="420" y="550" width="60" height="30" as="geometry" />
        </mxCell>
        <mxCell id="D0oXUGcAnFSLh3DBxSA6-21" value="" style="endArrow=classic;html=1;rounded=0;exitX=0.5;exitY=1;exitDx=0;exitDy=0;" edge="1" parent="1" source="D0oXUGcAnFSLh3DBxSA6-13" target="D0oXUGcAnFSLh3DBxSA6-22">
          <mxGeometry width="50" height="50" relative="1" as="geometry">
            <mxPoint x="390" y="500" as="sourcePoint" />
            <mxPoint x="395" y="670" as="targetPoint" />
          </mxGeometry>
        </mxCell>
        <mxCell id="D0oXUGcAnFSLh3DBxSA6-22" value="Upadate Travel req =closed &amp;amp;&lt;br&gt;booking =yes" style="rounded=0;whiteSpace=wrap;html=1;" vertex="1" parent="1">
          <mxGeometry x="330" y="660" width="130" height="60" as="geometry" />
        </mxCell>
        <mxCell id="D0oXUGcAnFSLh3DBxSA6-23" value="" style="endArrow=classic;html=1;rounded=0;exitX=0.5;exitY=1;exitDx=0;exitDy=0;" edge="1" parent="1" source="D0oXUGcAnFSLh3DBxSA6-22" target="D0oXUGcAnFSLh3DBxSA6-24">
          <mxGeometry width="50" height="50" relative="1" as="geometry">
            <mxPoint x="410" y="590" as="sourcePoint" />
            <mxPoint x="395" y="760" as="targetPoint" />
          </mxGeometry>
        </mxCell>
        <mxCell id="D0oXUGcAnFSLh3DBxSA6-24" value="End" style="rounded=1;whiteSpace=wrap;html=1;" vertex="1" parent="1">
          <mxGeometry x="335" y="760" width="120" height="40" as="geometry" />
        </mxCell>
        <mxCell id="D0oXUGcAnFSLh3DBxSA6-25" value="Yes" style="text;html=1;strokeColor=none;fillColor=none;align=center;verticalAlign=middle;whiteSpace=wrap;rounded=0;" vertex="1" parent="1">
          <mxGeometry x="390" y="630" width="60" height="30" as="geometry" />
        </mxCell>
        <mxCell id="D0oXUGcAnFSLh3DBxSA6-28" value="" style="endArrow=classic;html=1;rounded=0;exitX=0.5;exitY=1;exitDx=0;exitDy=0;" edge="1" parent="1" source="D0oXUGcAnFSLh3DBxSA6-1" target="D0oXUGcAnFSLh3DBxSA6-4">
          <mxGeometry width="50" height="50" relative="1" as="geometry">
            <mxPoint x="400" y="100" as="sourcePoint" />
            <mxPoint x="450" y="50" as="targetPoint" />
          </mxGeometry>
        </mxCell>
        <mxCell id="D0oXUGcAnFSLh3DBxSA6-29" value="" style="endArrow=classic;html=1;rounded=0;exitX=0.5;exitY=1;exitDx=0;exitDy=0;entryX=0.5;entryY=0;entryDx=0;entryDy=0;" edge="1" parent="1" source="D0oXUGcAnFSLh3DBxSA6-4" target="D0oXUGcAnFSLh3DBxSA6-5">
          <mxGeometry width="50" height="50" relative="1" as="geometry">
            <mxPoint x="410" y="260" as="sourcePoint" />
            <mxPoint x="460" y="210" as="targetPoint" />
          </mxGeometry>
        </mxCell>
        <mxCell id="D0oXUGcAnFSLh3DBxSA6-30" value="" style="endArrow=classic;html=1;rounded=0;exitX=0.5;exitY=1;exitDx=0;exitDy=0;" edge="1" parent="1" source="D0oXUGcAnFSLh3DBxSA6-5" target="D0oXUGcAnFSLh3DBxSA6-6">
          <mxGeometry width="50" height="50" relative="1" as="geometry">
            <mxPoint x="410" y="370" as="sourcePoint" />
            <mxPoint x="460" y="320" as="targetPoint" />
          </mxGeometry>
        </mxCell>
        <mxCell id="D0oXUGcAnFSLh3DBxSA6-31" value="" style="endArrow=classic;html=1;rounded=0;exitX=0.5;exitY=1;exitDx=0;exitDy=0;" edge="1" parent="1" source="D0oXUGcAnFSLh3DBxSA6-15">
          <mxGeometry width="50" height="50" relative="1" as="geometry">
            <mxPoint x="410" y="610" as="sourcePoint" />
            <mxPoint x="550" y="550" as="targetPoint" />
          </mxGeometry>
        </mxCell>
      </root>
    </mxGraphModel>
  </diagram>
</mxfile>
